# xmcd CD database file
#
# Track frame offsets:
#	150
#	18928
#	34059
#	47520
#	69214
#	88398
#	113340
#	130450
#	151354
#	182975
#
# Disc length: 2747 seconds
#
# Revision: 0
# Processed by: cddbd v1.5.1PL0 Copyright (c) Steve Scherf et al.
# Submitted via: CDex 1.51
#
DISCID=7b0ab90a
DTITLE=251 LIVE RALLY2 - various artist
DYEAR=2005
DGENRE=ロック (一般)
TTITLE0=そばにいたい
TTITLE1=ハッチバック
TTITLE2=チェスターコパーポットのテーマ
TTITLE3=空炭酸水日和
TTITLE4=1208
TTITLE5=ブレーメン
TTITLE6=ロマンス
TTITLE7=ネスト
TTITLE8=blue
TTITLE9=mylife-asdog
EXTD=YEAR: 2005
EXTT0=
EXTT1=
EXTT2=
EXTT3=
EXTT4=
EXTT5=
EXTT6=
EXTT7=
EXTT8=
EXTT9=
PLAYORDER=
